<svg width="20" height="20" viewBox="0 0 20 20" fill="none" xmlns="http://www.w3.org/2000/svg">
<path d="M9.72222 2.22222C8.34151 2.22222 7.22222 3.34151 7.22222 4.72222C7.22222 5.18246 7.59531 5.55556 8.05555 5.55556C8.51579 5.55556 8.88888 5.18246 8.88888 4.72222C8.88888 4.26198 9.26198 3.88889 9.72222 3.88889H14.1667C14.6269 3.88889 15 4.26199 15 4.72222V15.2778C15 15.738 14.6269 16.1111 14.1667 16.1111H9.72222C9.26198 16.1111 8.88888 15.738 8.88888 15.2778C8.88888 14.8175 8.51579 14.4444 8.05555 14.4444C7.59531 14.4444 7.22222 14.8175 7.22222 15.2778C7.22222 16.6585 8.34151 17.7778 9.72222 17.7778H14.1667C15.5474 17.7778 16.6667 16.6585 16.6667 15.2778V4.72222C16.6667 3.34151 15.5474 2.22222 14.1667 2.22222H9.72222Z" fill="#FF3B30"/>
<path d="M12.5 10.8333C12.9602 10.8333 13.3333 10.4602 13.3333 10C13.3333 9.53976 12.9602 9.16667 12.5 9.16667L6.17851 9.16667L7.25592 8.08926C7.58135 7.76382 7.58135 7.23618 7.25592 6.91074C6.93048 6.58531 6.40284 6.58531 6.07741 6.91074L3.57741 9.41074C3.42113 9.56702 3.33333 9.77899 3.33333 10C3.33333 10.221 3.42113 10.433 3.57741 10.5893L6.07741 13.0893C6.40284 13.4147 6.93048 13.4147 7.25592 13.0893C7.58135 12.7638 7.58135 12.2362 7.25592 11.9107L6.17851 10.8333H12.5Z" fill="#FF3B30"/>
</svg>
